<svg id="visual" viewBox="0 0 900 600" width="900" height="600" xmlns="http://www.w3.org/2000/svg" xmlns:xlink="http://www.w3.org/1999/xlink" version="1.1"><rect x="0" y="0" width="900" height="600" fill="#1a1a1a"></rect><path d="M0 488L39 488L39 490L78 490L78 499L117 499L117 489L157 489L157 476L196 476L196 501L235 501L235 487L274 487L274 493L313 493L313 491L352 491L352 489L391 489L391 488L430 488L430 484L470 484L470 491L509 491L509 491L548 491L548 499L587 499L587 489L626 489L626 477L665 477L665 481L704 481L704 475L743 475L743 487L783 487L783 474L822 474L822 482L861 482L861 485L900 485L900 479L900 601L900 601L861 601L861 601L822 601L822 601L783 601L783 601L743 601L743 601L704 601L704 601L665 601L665 601L626 601L626 601L587 601L587 601L548 601L548 601L509 601L509 601L470 601L470 601L430 601L430 601L391 601L391 601L352 601L352 601L313 601L313 601L274 601L274 601L235 601L235 601L196 601L196 601L157 601L157 601L117 601L117 601L78 601L78 601L39 601L39 601L0 601Z" fill="#1a1a1a"></path><path d="M0 501L39 501L39 489L78 489L78 496L117 496L117 493L157 493L157 489L196 489L196 492L235 492L235 490L274 490L274 511L313 511L313 501L352 501L352 487L391 487L391 501L430 501L430 502L470 502L470 505L509 505L509 496L548 496L548 510L587 510L587 505L626 505L626 487L665 487L665 499L704 499L704 495L743 495L743 498L783 498L783 511L822 511L822 494L861 494L861 505L900 505L900 510L900 601L900 601L861 601L861 601L822 601L822 601L783 601L783 601L743 601L743 601L704 601L704 601L665 601L665 601L626 601L626 601L587 601L587 601L548 601L548 601L509 601L509 601L470 601L470 601L430 601L430 601L391 601L391 601L352 601L352 601L313 601L313 601L274 601L274 601L235 601L235 601L196 601L196 601L157 601L157 601L117 601L117 601L78 601L78 601L39 601L39 601L0 601Z" fill="#2d201a"></path><path d="M0 500L39 500L39 513L78 513L78 503L117 503L117 507L157 507L157 519L196 519L196 517L235 517L235 508L274 508L274 518L313 518L313 514L352 514L352 516L391 516L391 522L430 522L430 520L470 520L470 518L509 518L509 508L548 508L548 520L587 520L587 521L626 521L626 521L665 521L665 515L704 515L704 504L743 504L743 515L783 515L783 522L822 522L822 507L861 507L861 513L900 513L900 512L900 601L900 601L861 601L861 601L822 601L822 601L783 601L783 601L743 601L743 601L704 601L704 601L665 601L665 601L626 601L626 601L587 601L587 601L548 601L548 601L509 601L509 601L470 601L470 601L430 601L430 601L391 601L391 601L352 601L352 601L313 601L313 601L274 601L274 601L235 601L235 601L196 601L196 601L157 601L157 601L117 601L117 601L78 601L78 601L39 601L39 601L0 601Z" fill="#3f2719"></path><path d="M0 529L39 529L39 517L78 517L78 519L117 519L117 525L157 525L157 526L196 526L196 521L235 521L235 514L274 514L274 529L313 529L313 514L352 514L352 518L391 518L391 525L430 525L430 531L470 531L470 520L509 520L509 516L548 516L548 524L587 524L587 521L626 521L626 517L665 517L665 518L704 518L704 524L743 524L743 525L783 525L783 514L822 514L822 518L861 518L861 532L900 532L900 514L900 601L900 601L861 601L861 601L822 601L822 601L783 601L783 601L743 601L743 601L704 601L704 601L665 601L665 601L626 601L626 601L587 601L587 601L548 601L548 601L509 601L509 601L470 601L470 601L430 601L430 601L391 601L391 601L352 601L352 601L313 601L313 601L274 601L274 601L235 601L235 601L196 601L196 601L157 601L157 601L117 601L117 601L78 601L78 601L39 601L39 601L0 601Z" fill="#512d18"></path><path d="M0 540L39 540L39 526L78 526L78 532L117 532L117 537L157 537L157 540L196 540L196 526L235 526L235 536L274 536L274 539L313 539L313 526L352 526L352 536L391 536L391 532L430 532L430 529L470 529L470 532L509 532L509 533L548 533L548 536L587 536L587 542L626 542L626 528L665 528L665 538L704 538L704 536L743 536L743 529L783 529L783 531L822 531L822 529L861 529L861 539L900 539L900 529L900 601L900 601L861 601L861 601L822 601L822 601L783 601L783 601L743 601L743 601L704 601L704 601L665 601L665 601L626 601L626 601L587 601L587 601L548 601L548 601L509 601L509 601L470 601L470 601L430 601L430 601L391 601L391 601L352 601L352 601L313 601L313 601L274 601L274 601L235 601L235 601L196 601L196 601L157 601L157 601L117 601L117 601L78 601L78 601L39 601L39 601L0 601Z" fill="#633316"></path><path d="M0 549L39 549L39 539L78 539L78 551L117 551L117 546L157 546L157 548L196 548L196 543L235 543L235 548L274 548L274 546L313 546L313 551L352 551L352 546L391 546L391 539L430 539L430 551L470 551L470 539L509 539L509 542L548 542L548 544L587 544L587 539L626 539L626 550L665 550L665 542L704 542L704 542L743 542L743 547L783 547L783 553L822 553L822 539L861 539L861 547L900 547L900 540L900 601L900 601L861 601L861 601L822 601L822 601L783 601L783 601L743 601L743 601L704 601L704 601L665 601L665 601L626 601L626 601L587 601L587 601L548 601L548 601L509 601L509 601L470 601L470 601L430 601L430 601L391 601L391 601L352 601L352 601L313 601L313 601L274 601L274 601L235 601L235 601L196 601L196 601L157 601L157 601L117 601L117 601L78 601L78 601L39 601L39 601L0 601Z" fill="#763913"></path><path d="M0 562L39 562L39 557L78 557L78 556L117 556L117 552L157 552L157 555L196 555L196 563L235 563L235 559L274 559L274 555L313 555L313 555L352 555L352 560L391 560L391 563L430 563L430 560L470 560L470 563L509 563L509 554L548 554L548 553L587 553L587 559L626 559L626 558L665 558L665 558L704 558L704 562L743 562L743 554L783 554L783 555L822 555L822 558L861 558L861 561L900 561L900 563L900 601L900 601L861 601L861 601L822 601L822 601L783 601L783 601L743 601L743 601L704 601L704 601L665 601L665 601L626 601L626 601L587 601L587 601L548 601L548 601L509 601L509 601L470 601L470 601L430 601L430 601L391 601L391 601L352 601L352 601L313 601L313 601L274 601L274 601L235 601L235 601L196 601L196 601L157 601L157 601L117 601L117 601L78 601L78 601L39 601L39 601L0 601Z" fill="#893f0f"></path><path d="M0 569L39 569L39 569L78 569L78 565L117 565L117 570L157 570L157 566L196 566L196 570L235 570L235 568L274 568L274 571L313 571L313 565L352 565L352 565L391 565L391 569L430 569L430 572L470 572L470 573L509 573L509 572L548 572L548 568L587 568L587 572L626 572L626 571L665 571L665 571L704 571L704 566L743 566L743 569L783 569L783 570L822 570L822 569L861 569L861 569L900 569L900 566L900 601L900 601L861 601L861 601L822 601L822 601L783 601L783 601L743 601L743 601L704 601L704 601L665 601L665 601L626 601L626 601L587 601L587 601L548 601L548 601L509 601L509 601L470 601L470 601L430 601L430 601L391 601L391 601L352 601L352 601L313 601L313 601L274 601L274 601L235 601L235 601L196 601L196 601L157 601L157 601L117 601L117 601L78 601L78 601L39 601L39 601L0 601Z" fill="#9c4609"></path><path d="M0 580L39 580L39 580L78 580L78 582L117 582L117 582L157 582L157 581L196 581L196 578L235 578L235 584L274 584L274 579L313 579L313 584L352 584L352 579L391 579L391 578L430 578L430 578L470 578L470 579L509 579L509 584L548 584L548 579L587 579L587 584L626 584L626 582L665 582L665 580L704 580L704 579L743 579L743 579L783 579L783 583L822 583L822 581L861 581L861 579L900 579L900 584L900 601L900 601L861 601L861 601L822 601L822 601L783 601L783 601L743 601L743 601L704 601L704 601L665 601L665 601L626 601L626 601L587 601L587 601L548 601L548 601L509 601L509 601L470 601L470 601L430 601L430 601L391 601L391 601L352 601L352 601L313 601L313 601L274 601L274 601L235 601L235 601L196 601L196 601L157 601L157 601L117 601L117 601L78 601L78 601L39 601L39 601L0 601Z" fill="#b04c00"></path></svg>